<svg width="800" height="350" xmlns="http://www.w3.org/2000/svg"><rect width="800" height="350" fill="#fafafa"/><text x="400" y="30" text-anchor="middle" font-size="18" font-weight="bold" fill="#333">Abu Dhabi Intl (AUH) - Discrepancy % vs Ground Truth</text><line x1="60" y1="60" x2="60" y2="270" stroke="#333" stroke-width="1"/><text x="50" y="274" text-anchor="end" font-size="11" fill="#666">0%</text><text x="50" y="232" text-anchor="end" font-size="11" fill="#666">20%</text><line x1="60" y1="228" x2="760" y2="228" stroke="#ddd" stroke-width="1"/><text x="50" y="190" text-anchor="end" font-size="11" fill="#666">40%</text><line x1="60" y1="186" x2="760" y2="186" stroke="#ddd" stroke-width="1"/><text x="50" y="148" text-anchor="end" font-size="11" fill="#666">60%</text><line x1="60" y1="144" x2="760" y2="144" stroke="#ddd" stroke-width="1"/><text x="50" y="106" text-anchor="end" font-size="11" fill="#666">80%</text><line x1="60" y1="102" x2="760" y2="102" stroke="#ddd" stroke-width="1"/><text x="50" y="64" text-anchor="end" font-size="11" fill="#666">100%</text><line x1="60" y1="60" x2="760" y2="60" stroke="#ddd" stroke-width="1"/><line x1="60" y1="270" x2="760" y2="270" stroke="#333" stroke-width="1"/><rect x="81" y="156.92307692307693" width="49" height="113.07692307692307" fill="#60a5fa" opacity="0.9"/><text x="130" y="290" text-anchor="middle" font-size="10" fill="#666" transform="rotate(-45, 130, 290)">04-04</text><rect x="221" y="162.63157894736844" width="49" height="107.36842105263158" fill="#60a5fa" opacity="0.9"/><text x="270" y="290" text-anchor="middle" font-size="10" fill="#666" transform="rotate(-45, 270, 290)">04-06</text><rect x="361" y="161.1740890688259" width="49" height="108.82591093117409" fill="#60a5fa" opacity="0.9"/><text x="410" y="290" text-anchor="middle" font-size="10" fill="#666" transform="rotate(-45, 410, 290)">04-07</text><rect x="501" y="162.72727272727272" width="49" height="107.27272727272728" fill="#60a5fa" opacity="0.9"/><text x="550" y="290" text-anchor="middle" font-size="10" fill="#666" transform="rotate(-45, 550, 290)">04-08</text><rect x="641" y="60" width="49" height="210" fill="#3b82f6" opacity="0.9"/><text x="690" y="290" text-anchor="middle" font-size="10" fill="#666" transform="rotate(-45, 690, 290)">04-12</text><rect x="620" y="50" width="12" height="12" fill="#3b82f6"/><text x="635" y="60" font-size="11" fill="#333">AeroDataBox</text><rect x="620" y="68" width="12" height="12" fill="#f97316"/><text x="635" y="78" font-size="11" fill="#333">OpenSky</text></svg>