<svg width="800" height="350" xmlns="http://www.w3.org/2000/svg"><rect width="800" height="350" fill="#fafafa"/><text x="400" y="30" text-anchor="middle" font-size="18" font-weight="bold" fill="#333">Hamad Intl (DOH) - Flight Count Trends</text><text x="50" y="274" text-anchor="end" font-size="11" fill="#666">0</text><text x="50" y="232" text-anchor="end" font-size="11" fill="#666">100</text><line x1="60" y1="228" x2="760" y2="228" stroke="#eee" stroke-width="1"/><text x="50" y="190" text-anchor="end" font-size="11" fill="#666">200</text><line x1="60" y1="186" x2="760" y2="186" stroke="#eee" stroke-width="1"/><text x="50" y="148" text-anchor="end" font-size="11" fill="#666">300</text><line x1="60" y1="144" x2="760" y2="144" stroke="#eee" stroke-width="1"/><text x="50" y="106" text-anchor="end" font-size="11" fill="#666">400</text><line x1="60" y1="102" x2="760" y2="102" stroke="#eee" stroke-width="1"/><text x="50" y="64" text-anchor="end" font-size="11" fill="#666">500</text><line x1="60" y1="60" x2="760" y2="60" stroke="#eee" stroke-width="1"/><line x1="60" y1="60" x2="60" y2="270" stroke="#333" stroke-width="1"/><line x1="60" y1="270" x2="760" y2="270" stroke="#333" stroke-width="1"/><text x="60" y="290" text-anchor="middle" font-size="10" fill="#666" transform="rotate(-45, 60, 290)">04-03</text><text x="137.77777777777777" y="290" text-anchor="middle" font-size="10" fill="#666" transform="rotate(-45, 137.77777777777777, 290)">04-04</text><text x="215.55555555555554" y="290" text-anchor="middle" font-size="10" fill="#666" transform="rotate(-45, 215.55555555555554, 290)">04-05</text><text x="293.3333333333333" y="290" text-anchor="middle" font-size="10" fill="#666" transform="rotate(-45, 293.3333333333333, 290)">04-06</text><text x="371.1111111111111" y="290" text-anchor="middle" font-size="10" fill="#666" transform="rotate(-45, 371.1111111111111, 290)">04-07</text><text x="448.88888888888886" y="290" text-anchor="middle" font-size="10" fill="#666" transform="rotate(-45, 448.88888888888886, 290)">04-08</text><text x="526.6666666666666" y="290" text-anchor="middle" font-size="10" fill="#666" transform="rotate(-45, 526.6666666666666, 290)">04-09</text><text x="604.4444444444443" y="290" text-anchor="middle" font-size="10" fill="#666" transform="rotate(-45, 604.4444444444443, 290)">04-10</text><text x="682.2222222222222" y="290" text-anchor="middle" font-size="10" fill="#666" transform="rotate(-45, 682.2222222222222, 290)">04-11</text><text x="760" y="290" text-anchor="middle" font-size="10" fill="#666" transform="rotate(-45, 760, 290)">04-12</text><polyline points="60,127.19999999999999 137.77777777777777,128.45999999999998 215.55555555555554,129.72 293.3333333333333,128.45999999999998 371.1111111111111,132.23999999999998 448.88888888888886,118.80000000000001 526.6666666666666,111.66 604.4444444444443,113.75999999999999 682.2222222222222,119.64000000000001 760,119.22" fill="none" stroke="#22c55e" stroke-width="2.5"/><polyline points="60,127.19999999999999 137.77777777777777,244.8 215.55555555555554,245.64 293.3333333333333,246.06 371.1111111111111,249 448.88888888888886,238.92000000000002 526.6666666666666,235.14 604.4444444444443,233.04 682.2222222222222,231.36 760,81" fill="none" stroke="#3b82f6" stroke-width="2.5" stroke-dasharray="5,3"/><polyline points="60,243.54 137.77777777777777,254.46 215.55555555555554,264.54 293.3333333333333,248.16 371.1111111111111,254.46 448.88888888888886,254.88 526.6666666666666,246.48 604.4444444444443,257.82 682.2222222222222,251.52" fill="none" stroke="#f97316" stroke-width="2.5" stroke-dasharray="3,3"/><circle cx="60" cy="127.19999999999999" r="4" fill="#22c55e"/><circle cx="60" cy="127.19999999999999" r="3" fill="#3b82f6"/><circle cx="60" cy="243.54" r="3" fill="#f97316"/><circle cx="137.77777777777777" cy="128.45999999999998" r="4" fill="#22c55e"/><circle cx="137.77777777777777" cy="244.8" r="3" fill="#3b82f6"/><circle cx="137.77777777777777" cy="254.46" r="3" fill="#f97316"/><circle cx="215.55555555555554" cy="129.72" r="4" fill="#22c55e"/><circle cx="215.55555555555554" cy="245.64" r="3" fill="#3b82f6"/><circle cx="215.55555555555554" cy="264.54" r="3" fill="#f97316"/><circle cx="293.3333333333333" cy="128.45999999999998" r="4" fill="#22c55e"/><circle cx="293.3333333333333" cy="246.06" r="3" fill="#3b82f6"/><circle cx="293.3333333333333" cy="248.16" r="3" fill="#f97316"/><circle cx="371.1111111111111" cy="132.23999999999998" r="4" fill="#22c55e"/><circle cx="371.1111111111111" cy="249" r="3" fill="#3b82f6"/><circle cx="371.1111111111111" cy="254.46" r="3" fill="#f97316"/><circle cx="448.88888888888886" cy="118.80000000000001" r="4" fill="#22c55e"/><circle cx="448.88888888888886" cy="238.92000000000002" r="3" fill="#3b82f6"/><circle cx="448.88888888888886" cy="254.88" r="3" fill="#f97316"/><circle cx="526.6666666666666" cy="111.66" r="4" fill="#22c55e"/><circle cx="526.6666666666666" cy="235.14" r="3" fill="#3b82f6"/><circle cx="526.6666666666666" cy="246.48" r="3" fill="#f97316"/><circle cx="604.4444444444443" cy="113.75999999999999" r="4" fill="#22c55e"/><circle cx="604.4444444444443" cy="233.04" r="3" fill="#3b82f6"/><circle cx="604.4444444444443" cy="257.82" r="3" fill="#f97316"/><circle cx="682.2222222222222" cy="119.64000000000001" r="4" fill="#22c55e"/><circle cx="682.2222222222222" cy="231.36" r="3" fill="#3b82f6"/><circle cx="682.2222222222222" cy="251.52" r="3" fill="#f97316"/><circle cx="760" cy="119.22" r="4" fill="#22c55e"/><circle cx="760" cy="81" r="3" fill="#3b82f6"/><line x1="600" y1="56" x2="620" y2="56" stroke="#22c55e" stroke-width="2.5"/><text x="625" y="60" font-size="11" fill="#333">Ground Truth</text><line x1="600" y1="74" x2="620" y2="74" stroke="#3b82f6" stroke-width="2.5" stroke-dasharray="5,3"/><text x="625" y="78" font-size="11" fill="#333">AeroDataBox</text><line x1="600" y1="92" x2="620" y2="92" stroke="#f97316" stroke-width="2.5" stroke-dasharray="3,3"/><text x="625" y="96" font-size="11" fill="#333">OpenSky</text></svg>