<svg width="800" height="400" xmlns="http://www.w3.org/2000/svg"><rect width="800" height="400" fill="#fafafa"/><text x="400" y="30" text-anchor="middle" font-size="18" font-weight="bold" fill="#333">Hamad Intl (DOH) - Daily Flight Counts</text><line x1="60" y1="60" x2="60" y2="320" stroke="#333" stroke-width="1"/><text x="50" y="324" text-anchor="end" font-size="11" fill="#666">0</text><text x="50" y="272" text-anchor="end" font-size="11" fill="#666">80</text><line x1="60" y1="268" x2="760" y2="268" stroke="#ddd" stroke-width="1"/><text x="50" y="220" text-anchor="end" font-size="11" fill="#666">160</text><line x1="60" y1="216" x2="760" y2="216" stroke="#ddd" stroke-width="1"/><text x="50" y="168" text-anchor="end" font-size="11" fill="#666">240</text><line x1="60" y1="164" x2="760" y2="164" stroke="#ddd" stroke-width="1"/><text x="50" y="116" text-anchor="end" font-size="11" fill="#666">320</text><line x1="60" y1="112" x2="760" y2="112" stroke="#ddd" stroke-width="1"/><text x="50" y="64" text-anchor="end" font-size="11" fill="#666">400</text><line x1="60" y1="60" x2="760" y2="60" stroke="#ddd" stroke-width="1"/><line x1="60" y1="320" x2="760" y2="320" stroke="#333" stroke-width="1"/><rect x="67" y="99" width="17.5" height="221" fill="#22c55e" opacity="0.9"/><rect x="84.5" y="215.35" width="17.5" height="104.65" fill="#3b82f6" opacity="0.9"/><rect x="102" y="279.05" width="17.5" height="40.95" fill="#f97316" opacity="0.9"/><text x="93.25" y="340" text-anchor="middle" font-size="10" fill="#666" transform="rotate(-45, 93.25, 340)">04-03</text><rect x="137" y="100.94999999999999" width="17.5" height="219.05" fill="#22c55e" opacity="0.9"/><rect x="154.5" y="281" width="17.5" height="39" fill="#3b82f6" opacity="0.9"/><rect x="172" y="295.95" width="17.5" height="24.05" fill="#f97316" opacity="0.9"/><text x="163.25" y="340" text-anchor="middle" font-size="10" fill="#666" transform="rotate(-45, 163.25, 340)">04-04</text><rect x="207" y="102.9" width="17.5" height="217.1" fill="#22c55e" opacity="0.9"/><rect x="224.5" y="282.3" width="17.5" height="37.699999999999996" fill="#3b82f6" opacity="0.9"/><rect x="242" y="311.55" width="17.5" height="8.450000000000001" fill="#f97316" opacity="0.9"/><text x="233.25" y="340" text-anchor="middle" font-size="10" fill="#666" transform="rotate(-45, 233.25, 340)">04-05</text><rect x="277" y="100.94999999999999" width="17.5" height="219.05" fill="#22c55e" opacity="0.9"/><rect x="294.5" y="282.95" width="17.5" height="37.05" fill="#3b82f6" opacity="0.9"/><rect x="312" y="286.2" width="17.5" height="33.800000000000004" fill="#f97316" opacity="0.9"/><text x="303.25" y="340" text-anchor="middle" font-size="10" fill="#666" transform="rotate(-45, 303.25, 340)">04-06</text><rect x="347" y="106.80000000000001" width="17.5" height="213.2" fill="#22c55e" opacity="0.9"/><rect x="364.5" y="287.5" width="17.5" height="32.5" fill="#3b82f6" opacity="0.9"/><rect x="382" y="295.95" width="17.5" height="24.05" fill="#f97316" opacity="0.9"/><text x="373.25" y="340" text-anchor="middle" font-size="10" fill="#666" transform="rotate(-45, 373.25, 340)">04-07</text><rect x="417" y="86" width="17.5" height="234" fill="#22c55e" opacity="0.9"/><rect x="434.5" y="271.9" width="17.5" height="48.1" fill="#3b82f6" opacity="0.9"/><rect x="452" y="296.6" width="17.5" height="23.4" fill="#f97316" opacity="0.9"/><text x="443.25" y="340" text-anchor="middle" font-size="10" fill="#666" transform="rotate(-45, 443.25, 340)">04-08</text><rect x="487" y="74.94999999999999" width="17.5" height="245.05" fill="#22c55e" opacity="0.9"/><rect x="504.5" y="266.05" width="17.5" height="53.949999999999996" fill="#3b82f6" opacity="0.9"/><rect x="522" y="283.6" width="17.5" height="36.400000000000006" fill="#f97316" opacity="0.9"/><text x="513.25" y="340" text-anchor="middle" font-size="10" fill="#666" transform="rotate(-45, 513.25, 340)">04-09</text><rect x="557" y="78.19999999999999" width="17.5" height="241.8" fill="#22c55e" opacity="0.9"/><rect x="574.5" y="262.8" width="17.5" height="57.2" fill="#3b82f6" opacity="0.9"/><rect x="592" y="301.15" width="17.5" height="18.849999999999998" fill="#f97316" opacity="0.9"/><text x="583.25" y="340" text-anchor="middle" font-size="10" fill="#666" transform="rotate(-45, 583.25, 340)">04-10</text><rect x="627" y="87.29999999999998" width="17.5" height="232.70000000000002" fill="#22c55e" opacity="0.9"/><rect x="644.5" y="260.2" width="17.5" height="59.800000000000004" fill="#3b82f6" opacity="0.9"/><rect x="662" y="291.4" width="17.5" height="28.6" fill="#f97316" opacity="0.9"/><text x="653.25" y="340" text-anchor="middle" font-size="10" fill="#666" transform="rotate(-45, 653.25, 340)">04-11</text><rect x="697" y="86.65" width="17.5" height="233.35" fill="#22c55e" opacity="0.9"/><rect x="714.5" y="86.65" width="17.5" height="233.35" fill="#3b82f6" opacity="0.9"/><text x="723.25" y="340" text-anchor="middle" font-size="10" fill="#666" transform="rotate(-45, 723.25, 340)">04-12</text><rect x="600" y="50" width="12" height="12" fill="#22c55e"/><text x="615" y="60" font-size="11" fill="#333">Ground Truth (Official)</text><rect x="600" y="68" width="12" height="12" fill="#3b82f6"/><text x="615" y="78" font-size="11" fill="#333">AeroDataBox</text><rect x="600" y="86" width="12" height="12" fill="#f97316"/><text x="615" y="96" font-size="11" fill="#333">OpenSky</text></svg>